# xmcd CD database file
#
# Track frame offsets:
#	150
#	2274
#	20209
#	36683
#	55227
#	70315
#	82697
#	92437
#	102622
#	113511
#	125745
#	139753
#	157801
#	176541
#	193787
#	210943
#	228162
#	247197
#	259394
#	274148
#	284805
#	297323
#
# Disc length: 4157 seconds
#
# Revision: 0
# Processed by: cddbd v1.5.2PL0 Copyright (c) Steve Scherf et al.
# Submitted via: CDex 1.51
#
DISCID=43103b16
DTITLE=21 Classic Hits Playalong for Alto Sax - Full performance
DYEAR=2003
DGENRE=Jazz
TTITLE0=Tuning Notes
TTITLE1=American Pie [Madonna] 
TTITLE2=Desert Rose [Sting] 
TTITLE3=The Girl From Ipanema
TTITLE4=Guantanamera  
TTITLE5=I Got You (I Feel Good) [Brown, James] 
TTITLE6=I Say A Little Prayer [Franklin, Aretha] 
TTITLE7=La Bamba 
TTITLE8=Moonglow  
TTITLE9=In The Midnight Hour [Pickett, Wilson]
TTITLE10=One Note Samba  
TTITLE11=Oye Como Va [Santana]
TTITLE12=Pure Shores [All Saints]  
TTITLE13=Reach [S Club 7]  
TTITLE14=Rise [Gabrielle]
TTITLE15=She's The One [Williams, Robbie
TTITLE16=Desafinado (Slightly Out Of Tune)
TTITLE17=(Sittin' On) The Dock Of The Bay [Redding, Otis]
TTITLE18=Straight No Chase
TTITLE19=Sway (Quien Sera)  
TTITLE20=Stand By Me
TTITLE21=Take The 'A' Train
EXTD=YEAR: 2003
EXTT0=
EXTT1=
EXTT2=
EXTT3=
EXTT4=
EXTT5=
EXTT6=
EXTT7=
EXTT8=
EXTT9=
EXTT10=
EXTT11=
EXTT12=
EXTT13=
EXTT14=
EXTT15=
EXTT16=
EXTT17=
EXTT18=
EXTT19=
EXTT20=
EXTT21=
PLAYORDER=
